/* XPM */
static char * exit_xpm[] = {
"48 48 99 2",
"  	c #C8D45D",
". 	c #14182E",
"+ 	c #8F4D57",
"@ 	c #FFAE70",
"# 	c #BD6A62",
"$ 	c #884953",
"% 	c #240F12",
"& 	c #150608",
"* 	c #100506",
"= 	c #381A1F",
"- 	c #80444D",
"; 	c #52282F",
"> 	c #773F48",
", 	c #6D3A41",
"' 	c #3C1D21",
") 	c #8C4B55",
"! 	c #5A2E34",
"~ 	c #462328",
"{ 	c #36191E",
"] 	c #230E12",
"^ 	c #0C0304",
"/ 	c #4A252B",
"( 	c #7D434C",
"_ 	c #251012",
": 	c #67363E",
"< 	c #83464F",
"[ 	c #82464F",
"} 	c #31161A",
"| 	c #391B20",
"1 	c #261014",
"2 	c #220E11",
"3 	c #8D4C56",
"4 	c #2C1418",
"5 	c #894A53",
"6 	c #854750",
"7 	c #401F24",
"8 	c #1B0A0C",
"9 	c #6C3941",
"0 	c #442227",
"a 	c #281215",
"b 	c #0B0304",
"c 	c #371A1E",
"d 	c #8A4A54",
"e 	c #30161A",
"f 	c #18080A",
"g 	c #774048",
"h 	c #2F1519",
"i 	c #1D0B0E",
"j 	c #1F0C0F",
"k 	c #2B1317",
"l 	c #1C090C",
"m 	c #250F13",
"n 	c #271114",
"o 	c #48242A",
"p 	c #3F1F24",
"q 	c #020101",
"r 	c #562B33",
"s 	c #8E4C56",
"t 	c #8B4B55",
"u 	c #19090B",
"v 	c #19080B",
"w 	c #120507",
"x 	c #32171B",
"y 	c #6C3841",
"z 	c #010000",
"A 	c #63343B",
"B 	c #130607",
"C 	c #070202",
"D 	c #251013",
"E 	c #1B090C",
"F 	c #82454F",
"G 	c #763F47",
"H 	c #2C1317",
"I 	c #34181C",
"J 	c #31171B",
"K 	c #8B4B54",
"L 	c #291215",
"M 	c #562C32",
"N 	c #703B44",
"O 	c #4A252A",
"P 	c #230E11",
"Q 	c #713B43",
"R 	c #1C0A0D",
"S 	c #753E46",
"T 	c #371A1F",
"U 	c #8C4C55",
"V 	c #261114",
"W 	c #281114",
"X 	c #3E1E23",
"Y 	c #7C424B",
"Z 	c #592E34",
"` 	c #68373E",
" .	c #562B32",
"..	c #67353E",
"+.	c #8A4A53",
"@.	c #422126",
"#.	c #52333F",
"$.	c #A3A7C2",
"%.	c #DFE0E8",
"                                                                                                ",
"                                                                                                ",
"                                                                                                ",
"                                                                                                ",
"                                                                                                ",
"                                                                                                ",
"                                        . . . . . . . .                                         ",
"                                        . . . . . . . .                                         ",
"                    . . . . . . . . . . . . + + + + . . . . . . . . . . . .                     ",
"                    . . . . . . . . . . . . + + + + . . . . . . . . . . . .                     ",
"                . . @ @ @ @ @ @ @ @ @ @ @ @ @ @ @ @ @ @ @ @ @ @ @ @ @ @ @ @ . .                 ",
"                . . @ @ @ @ @ @ @ @ @ @ @ @ @ @ @ @ @ @ @ @ @ @ @ @ @ @ @ @ . .                 ",
"                . . # # # # # # # # # # # # # # # # # # # # # # # # # # # # . .                 ",
"                . . # # # # # # # # # # # # # # # # # # # # # # # # # # # # . .                 ",
"                . . # # + + $ + + + + + + + + + + + + + $ + + + + + + + # # . .                 ",
"                . . # # $ % & * = - ; > + , ' + ) ! + + ~ { ] ^ % / + + # # . .                 ",
"                . . # # ( _ : $ < [ } | + 1 2 + 3 4 + + + 5 6 7 + + + + # # . .                 ",
"                . . # # + 8 9 + + + 0 a > b 9 + 3 c + + + + d e + + + + # # . .                 ",
"                . . # # $ f > + + + g h i j + + 3 2 + + + + d k + + + + # # . .                 ",
"                . . # # + l m n o + + p q r + + s 2 + + + + t n + + + + # # . .                 ",
"                . . # # + u v w x + + y z p + + s 2 + + + + t n + + + + # # . .                 ",
"                . . # # + j A + + + + B C D > + s | + + + + ) n + + + + # # . .                 ",
"                . . # # + E 9 + + + F * G H h + s I + + + + t J K + + + # # . .                 ",
"                . . # # $ L M N [ + O P + Q R S + T + + + + d 0 U + + + # # . .                 ",
"                . . # # + } V W X Y Z ` + $  ...+.@.+ + + + + s + + + + # # . .                 ",
"                . . # # + ( ) ) + ( > + + + + + + + + + + + + d 3 + + + # # . .                 ",
"                . . # # # # # # # # # # # # # # # # # # # # # # # # # # # # . .                 ",
"                . . # # # # # # # # # # # # # # # # # # # # # # # # # # # # . .                 ",
"                    . . . . . . . . . . . . #.#.#.#.. . . . . . . . . . . .                     ",
"                    . . . . . . . . . . . . #.#.#.#.. . . . . . . . . . . .                     ",
"                                        . . + + + + . .                                         ",
"                                        . . + + + + . .                                         ",
"                                    . . $.$.+ + + + $.$.. .                                     ",
"                                    . . $.$.+ + + + $.$.. .                                     ",
"                                    . . %.%.%.%.%.%.%.%.. .                                     ",
"                                    . . %.%.%.%.%.%.%.%.. .                                     ",
"                                    . . $.$.$.$.$.$.$.$.. .                                     ",
"                                    . . $.$.$.$.$.$.$.$.. .                                     ",
"                                                                                                ",
"                                                                                                ",
"                                                                                                ",
"                                                                                                ",
"                                                                                                ",
"                                                                                                ",
"                                                                                                ",
"                                                                                                ",
"                                                                                                ",
"                                                                                                "};
