/* XPM */
static char * hero_xpm[] = {
"48 48 6 1",
" 	c #C8D45D",
".	c #14182E",
"+	c #A3A7C2",
"@	c #DFE0E8",
"#	c #686F99",
"$	c #AD2F45",
"                                                ",
"                                                ",
"                                                ",
"                                                ",
"                                                ",
"                                                ",
"                                                ",
"                                                ",
"                  ............                  ",
"                  ............                  ",
"                ..++@@@@@@@@++..                ",
"                ..++@@@@@@@@++..                ",
"              ..++@@@@@@@@@@@@++..              ",
"              ..++@@@@@@@@@@@@++..              ",
"              ..++@@@@@@@@@@@@++..              ",
"              ..++@@@@@@@@@@@@++..              ",
"              ..##++@@@@@@@@++##..              ",
"              ..##++@@@@@@@@++##..              ",
"              ..++..++@@@@++..++..              ",
"              ..++..++@@@@++..++..              ",
"              ..++....++++....++..              ",
"              ..++....++++....++..              ",
"              ..++..$$@@@@$$..++..              ",
"              ..++..$$@@@@$$..++..              ",
"                ..++@@####@@++..                ",
"                ..++@@####@@++..                ",
"              ....@@..@@@@..@@....              ",
"              ....@@..@@@@..@@....              ",
"            ..@@@@............@@@@..            ",
"            ..@@@@............@@@@..            ",
"          ..@@++..##++@@@@++##..++@@..          ",
"          ..@@++..##++@@@@++##..++@@..          ",
"          ..@@@@..++@@####@@++..@@@@..          ",
"          ..@@@@..++@@####@@++..@@@@..          ",
"            ........##++++##........            ",
"            ........##++++##........            ",
"                ..++++....++++..                ",
"                ..++++....++++..                ",
"                  ....    ....                  ",
"                  ....    ....                  ",
"                                                ",
"                                                ",
"                                                ",
"                                                ",
"                                                ",
"                                                ",
"                                                ",
"                                                "};
