/* XPM */
static char * treasure_xpm[] = {
"48 48 7 1",
" 	c #C8D45D",
".	c #14182E",
"+	c #FFEE83",
"@	c #AD2F45",
"#	c #F5FFE8",
"$	c #E64539",
"%	c #F0B541",
"                                                ",
"                                                ",
"                                                ",
"                                                ",
"                                                ",
"                                                ",
"                                                ",
"                                                ",
"                                                ",
"            ....                ....            ",
"            ....                ....            ",
"          ..++....................++..          ",
"          ..++....................++..          ",
"          ..++..@@@@@@@@@@@@@@@@..++..          ",
"          ..++..@@@@@@@@@@@@@@@@..++..          ",
"          ..##..$$$$$$$$$$$$$$$$..##..          ",
"          ..##..$$$$$$$$$$$$$$$$..##..          ",
"          ..++..@@@@@@@@@@@@@@@@..++..          ",
"          ..++..@@@@@@@@@@@@@@@@..++..          ",
"          ..++..@@@@........@@@@..++..          ",
"          ..++..@@@@........@@@@..++..          ",
"          ..++......########......++..          ",
"          ..++......########......++..          ",
"          ..++++++%%++....++%%++++++..          ",
"          ..++++++%%++....++%%++++++..          ",
"          ..........++....++..........          ",
"          ..........++....++..........          ",
"          ..%%..@@@@..++++..@@@@..%%..          ",
"          ..%%..@@@@..++++..@@@@..%%..          ",
"          ..++....................++..          ",
"          ..++....................++..          ",
"          ..++++++++++++++++++++++++..          ",
"          ..++++++++++++++++++++++++..          ",
"          ..%%....................%%..          ",
"          ..%%....................%%..          ",
"                                                ",
"                                                ",
"                                                ",
"                                                ",
"                                                ",
"                                                ",
"                                                ",
"                                                ",
"                                                ",
"                                                ",
"                                                ",
"                                                ",
"                                                "};
